<?xml version="1.0" encoding="utf-8"?>
<!-- Generator: Adobe Illustrator 21.1.0, SVG Export Plug-In . SVG Version: 6.00 Build 0)  -->
<svg version="1.1" id="Capa_1" xmlns="http://www.w3.org/2000/svg" xmlns:xlink="http://www.w3.org/1999/xlink" x="0px" y="0px"
	 viewBox="0 0 480 80" style="enable-background:new 0 0 480 80;" xml:space="preserve">
<style type="text/css">
	.st0{fill:#FCEE21;}
	.st1{fill:#3FA9F5;}
	.st2{fill:#FF2469;}
	.st3{fill:#FFFFFF;}
	.st4{opacity:0.35;fill:#FFFFFF;}
	.st5{fill:none;}
</style>
<g>
	<polygon class="st0" points="54.6,35.1 47.7,40.4 46.1,53.3 75.6,30.6 79.2,7.5 60.6,22 60.2,27.2 69.3,20.3 68,31.1 54.1,42.1 	
		"/>
	<polygon class="st1" points="46,55.3 65.2,71.4 72.3,65.6 63.2,57 76.3,46.5 89.3,57.7 80.1,65.4 87.3,71.8 105.1,57 76.6,31.4 	
		"/>
	<polygon class="st2" points="98.4,23.8 80.6,7.5 77.2,30.5 105.5,55.6 108,41.9 101.3,36 100,43.4 87.3,31.4 88.4,20.4 98,29 	"/>
</g>
<g>
	<path class="st3" d="M169.7,26.3v-9.8c0-0.6-0.5-1.1-1.1-1.1h-44.7c-0.6,0-1.1,0.5-1.1,1.1v47.7c0,0.6,0.5,1.1,1.1,1.1H171
		c0.6,0,1.1-0.5,1.1-1.1V52.6c0-0.6-0.5-1.1-1.1-1.1h-26c-0.6,0-1.1-0.5-1.1-1.1v-2.6c0-0.6,0.5-1.1,1.1-1.1h20.6
		c0.6,0,1.1-0.5,1.1-1.1v-11c0-0.6-0.5-1.1-1.1-1.1H145c-0.6,0-1.1-0.5-1.1-1.1v-3.8c0-0.6,0.5-1.1,1.1-1.1h23.6
		C169.2,27.4,169.7,26.9,169.7,26.3z"/>
	<path class="st3" d="M181.1,16.5V63c0,0.6,0.5,1.1,1.1,1.1h14c0.6,0,1.1-0.5,1.1-1.1V16.5c0-0.6-0.5-1.1-1.1-1.1h-14
		C181.6,15.4,181.1,15.9,181.1,16.5z"/>
	<path class="st4" d="M287.5,21.4"/>
	<path class="st3" d="M283.8,34.1h-15.4c-0.4,0-0.8-0.2-1-0.6c-1.1-1.9-4.9-7.7-9.9-6.7c-6,1.2-9,9-9,14.4s4.8,11.4,9,11.4
		c0,0,7.3,1.1,8.9-6.4c0.1-0.5,0.5-0.9,1-0.9l16.5-0.5c0.7,0,1.2,0.6,1.1,1.3c-0.7,4.3-4.4,18-25.1,18.5
		c-24.6,0.6-31.3-18.6-30.7-25.2c0.6-6.6,7.2-26.5,27.7-25.2c19.7,1.2,25.5,6.2,28,18.5C285,33.4,284.5,34.1,283.8,34.1z"/>
	<path class="st3" d="M258.7,32.2c0,0-3,0-3,7.2s1.2,7.2,2.4,7.2s3,0.6,3-7.2S258.7,32.2,258.7,32.2z"/>
	<path class="st3" d="M305.7,28.6h-13.4c-0.6,0-1.1,0.5-1.1,1.1v24.4c0,0.2,0.1,0.4,0.2,0.6c1,1.6,6.1,9.3,13.7,9.3
		c0,0,6.6,0,9.6-1.2c1.2-0.5,2.2-1.2,2.9-1.9c0.7-0.7,1.9-0.2,1.9,0.8v0c0,0.6,0.5,1.1,1.1,1.1h12.8c0.6,0,1.1-0.5,1.1-1.1V29.7
		c0-0.6-0.5-1.1-1.1-1.1h-14c-0.6,0-1.1,0.5-1.1,1.1v18c0,0.1,0,0.2,0,0.3c-0.2,0.8-1.5,5.3-4.8,5.3c-3.1,0-5.4-1.2-6-5.4
		c-0.5-3.5-0.6-14.6-0.6-18.1C306.8,29.1,306.3,28.6,305.7,28.6z"/>
	<path class="st3" d="M357.3,16h-14.6c-0.6,0-1.1,0.5-1.1,1.1v44.7c0,0.6,0.5,1.1,1.1,1.1h11.6c0.6,0,1.1-0.5,1.1-1.1v-0.7
		c0-0.9,1-1.4,1.8-0.9c2.3,1.7,6.6,4.3,11.5,3.9c0,0,16.2,0,16.8-16.2c0,0,1.8-19.8-15.6-19.8c0,0-5.2-0.9-9.7,2.2
		c-0.7,0.5-1.7,0-1.7-0.9V17.1C358.5,16.5,358,16,357.3,16z"/>
	<path class="st5" d="M364,39.5c-0.1,0-0.2,0-0.2,0c-0.9,0-5.9,0.6-5.9,7.2s5,7.2,5.9,7.2c0.1,0,0.2,0,0.2,0
		c0.8-0.1,5.3-1.2,5.3-7.2S364.8,39.6,364,39.5z"/>
	<path class="st3" d="M412.6,28c0,0-21-1.2-21.6,18.6s22.8,17.4,22.8,17.4s21,0,20.4-18S412.6,28,412.6,28z"/>
	<path class="st5" d="M418,46.6c0,0.1,0,0.1,0,0.2c0,0.8-0.3,7.7-5.4,7.7c-5.4,0-5.4-7.2-5.4-7.2s-0.7-9.6,5.4-9.6
		C419.4,37.7,418.1,45.7,418,46.6z"/>
</g>
</svg>
