<?xml version="1.0" encoding="utf-8"?>
<!-- Generator: Adobe Illustrator 21.1.0, SVG Export Plug-In . SVG Version: 6.00 Build 0)  -->
<svg version="1.1" xmlns="http://www.w3.org/2000/svg" xmlns:xlink="http://www.w3.org/1999/xlink" x="0px" y="0px"
	 viewBox="0 0 480 80" style="enable-background:new 0 0 480 80;" xml:space="preserve">
<style type="text/css">
	.st0{display:none;}
	.st1{display:inline;}
	.st2{fill:#FCEE21;}
	.st3{fill:#3FA9F5;}
	.st4{fill:#FF2469;}
	.st5{fill:#FFFFFF;}
	.st6{opacity:0.35;fill:#FFFFFF;enable-background:new    ;}
	.st7{fill:none;}
	.st8{fill:#FFFFFF;stroke:#FFFFFF;stroke-miterlimit:10;}
	.st9{fill:none;stroke:#000000;stroke-width:21;stroke-linecap:round;}
</style>
<g id="Capa_1" class="st0">
	<g class="st1">
		<polygon class="st2" points="54.6,35.1 47.7,40.4 46.1,53.3 75.6,30.6 79.2,7.5 60.6,22 60.2,27.2 69.3,20.3 68,31.1 54.1,42.1 		
			"/>
		<polygon class="st3" points="46,55.3 65.2,71.4 72.3,65.6 63.2,57 76.3,46.5 89.3,57.7 80.1,65.4 87.3,71.8 105.1,57 76.6,31.4 		
			"/>
		<polygon class="st4" points="98.4,23.8 80.6,7.5 77.2,30.5 105.5,55.6 108,41.9 101.3,36 100,43.4 87.3,31.4 88.4,20.4 98,29 		
			"/>
	</g>
	<g class="st1">
		<path class="st5" d="M169.7,26.3v-9.8c0-0.6-0.5-1.1-1.1-1.1h-44.7c-0.6,0-1.1,0.5-1.1,1.1v47.7c0,0.6,0.5,1.1,1.1,1.1H171
			c0.6,0,1.1-0.5,1.1-1.1V52.6c0-0.6-0.5-1.1-1.1-1.1h-26c-0.6,0-1.1-0.5-1.1-1.1v-2.6c0-0.6,0.5-1.1,1.1-1.1h20.6
			c0.6,0,1.1-0.5,1.1-1.1v-11c0-0.6-0.5-1.1-1.1-1.1H145c-0.6,0-1.1-0.5-1.1-1.1v-3.8c0-0.6,0.5-1.1,1.1-1.1h23.6
			C169.2,27.4,169.7,26.9,169.7,26.3z"/>
		<path class="st5" d="M181.1,16.5V63c0,0.6,0.5,1.1,1.1,1.1h14c0.6,0,1.1-0.5,1.1-1.1V16.5c0-0.6-0.5-1.1-1.1-1.1h-14
			C181.6,15.4,181.1,15.9,181.1,16.5z"/>
		<path class="st6" d="M287.5,21.4"/>
		<path class="st5" d="M283.8,34.1h-15.4c-0.4,0-0.8-0.2-1-0.6c-1.1-1.9-4.9-7.7-9.9-6.7c-6,1.2-9,9-9,14.4s4.8,11.4,9,11.4
			c0,0,7.3,1.1,8.9-6.4c0.1-0.5,0.5-0.9,1-0.9l16.5-0.5c0.7,0,1.2,0.6,1.1,1.3c-0.7,4.3-4.4,18-25.1,18.5
			c-24.6,0.6-31.3-18.6-30.7-25.2s7.2-26.5,27.7-25.2c19.7,1.2,25.5,6.2,28,18.5C285,33.4,284.5,34.1,283.8,34.1z"/>
		<path class="st5" d="M258.7,32.2c0,0-3,0-3,7.2s1.2,7.2,2.4,7.2s3,0.6,3-7.2S258.7,32.2,258.7,32.2z"/>
		<path class="st5" d="M305.7,28.6h-13.4c-0.6,0-1.1,0.5-1.1,1.1v24.4c0,0.2,0.1,0.4,0.2,0.6c1,1.6,6.1,9.3,13.7,9.3
			c0,0,6.6,0,9.6-1.2c1.2-0.5,2.2-1.2,2.9-1.9c0.7-0.7,1.9-0.2,1.9,0.8l0,0c0,0.6,0.5,1.1,1.1,1.1h12.8c0.6,0,1.1-0.5,1.1-1.1v-32
			c0-0.6-0.5-1.1-1.1-1.1h-14c-0.6,0-1.1,0.5-1.1,1.1v18c0,0.1,0,0.2,0,0.3c-0.2,0.8-1.5,5.3-4.8,5.3c-3.1,0-5.4-1.2-6-5.4
			c-0.5-3.5-0.6-14.6-0.6-18.1C306.8,29.1,306.3,28.6,305.7,28.6z"/>
		<path class="st5" d="M357.3,16h-14.6c-0.6,0-1.1,0.5-1.1,1.1v44.7c0,0.6,0.5,1.1,1.1,1.1h11.6c0.6,0,1.1-0.5,1.1-1.1v-0.7
			c0-0.9,1-1.4,1.8-0.9c2.3,1.7,6.6,4.3,11.5,3.9c0,0,16.2,0,16.8-16.2c0,0,1.8-19.8-15.6-19.8c0,0-5.2-0.9-9.7,2.2
			c-0.7,0.5-1.7,0-1.7-0.9V17.1C358.5,16.5,358,16,357.3,16z"/>
		<path class="st7" d="M364,39.5c-0.1,0-0.2,0-0.2,0c-0.9,0-5.9,0.6-5.9,7.2s5,7.2,5.9,7.2c0.1,0,0.2,0,0.2,0
			c0.8-0.1,5.3-1.2,5.3-7.2S364.8,39.6,364,39.5z"/>
		<path class="st5" d="M412.6,28c0,0-21-1.2-21.6,18.6S413.8,64,413.8,64s21,0,20.4-18S412.6,28,412.6,28z"/>
		<path class="st7" d="M418,46.6c0,0.1,0,0.1,0,0.2c0,0.8-0.3,7.7-5.4,7.7c-5.4,0-5.4-7.2-5.4-7.2s-0.7-9.6,5.4-9.6
			C419.4,37.7,418.1,45.7,418,46.6z"/>
	</g>
</g>
<g id="Capa_2">
	<g>
		<g>
			<path class="st8" d="M150.6,14.9h35.6v6h-29.1v14.9H184v5.7h-26.9v16.6h29.6V64h-36.1V14.9z"/>
			<path class="st8" d="M195,14.9h6V64h-6V14.9z"/>
			<path class="st8" d="M264.5,18.5c3.4,3.3,5.3,7,5.6,11.2h-6.5c-0.7-3.2-2.2-5.7-4.3-7.5c-2.2-1.8-5.2-2.8-9.1-2.8
				c-4.7,0-8.6,1.7-11.5,5.1c-2.9,3.4-4.4,8.6-4.4,15.6c0,5.7,1.3,10.4,4,14c2.6,3.6,6.6,5.4,11.8,5.4c4.8,0,8.5-1.9,11-5.6
				c1.3-2,2.3-4.6,3-7.8h6.5c-0.6,5.2-2.5,9.5-5.7,13c-3.9,4.2-9,6.3-15.6,6.3c-5.6,0-10.4-1.7-14.2-5.2c-5-4.6-7.6-11.6-7.6-21.2
				c0-7.2,1.9-13.2,5.7-17.8c4.1-5,9.7-7.6,16.9-7.6C256.3,13.6,261.1,15.2,264.5,18.5z"/>
			<path class="st8" d="M284.4,28.2V52c0,1.8,0.3,3.3,0.8,4.5c1,2.1,3,3.2,5.8,3.2c4.1,0,6.9-1.9,8.3-5.6c0.8-2,1.2-4.8,1.2-8.2
				V28.2h6V64h-5.7l0.1-5.3c-0.8,1.4-1.7,2.5-2.9,3.4c-2.2,1.9-5,2.8-8.2,2.8c-5,0-8.4-1.7-10.2-5.1c-1-1.8-1.5-4.3-1.5-7.3V28.2
				H284.4z"/>
			<path class="st8" d="M315.9,14.8h5.8v17.8c1.3-1.7,2.9-3,4.7-3.9c1.8-0.9,3.8-1.4,6-1.4c4.5,0,8.1,1.5,10.9,4.6
				c2.8,3.1,4.2,7.6,4.2,13.5c0,5.7-1.4,10.4-4.1,14.1c-2.7,3.7-6.6,5.6-11.4,5.6c-2.7,0-5-0.7-6.9-2c-1.1-0.8-2.3-2-3.6-3.7V64
				h-5.5V14.8z M338.9,56c1.6-2.6,2.4-6,2.4-10.2c0-3.8-0.8-6.9-2.4-9.4c-1.6-2.5-4-3.7-7.2-3.7c-2.7,0-5.2,1-7.2,3
				c-2.1,2-3.1,5.4-3.1,10c0,3.4,0.4,6.1,1.3,8.2c1.6,3.9,4.5,5.9,8.9,5.9C334.8,59.8,337.3,58.5,338.9,56z"/>
			<path class="st8" d="M380.4,31.8c3.2,3.1,4.7,7.6,4.7,13.5c0,5.8-1.4,10.5-4.2,14.3s-7.1,5.6-13,5.6c-4.9,0-8.8-1.7-11.6-5
				s-4.3-7.8-4.3-13.4c0-6,1.5-10.8,4.5-14.3s7.1-5.3,12.2-5.3C373.3,27.2,377.2,28.7,380.4,31.8z M376.6,55.6
				c1.5-3,2.2-6.4,2.2-10.1c0-3.3-0.5-6-1.6-8.1c-1.7-3.3-4.6-4.9-8.7-4.9c-3.6,0-6.3,1.4-7.9,4.2c-1.7,2.8-2.5,6.2-2.5,10.1
				c0,3.8,0.8,7,2.5,9.5c1.7,2.5,4.3,3.8,7.9,3.8C372.5,60.1,375.2,58.6,376.6,55.6z"/>
		</g>
		<g>
			<path class="st9" d="M150.6,14.9h35.6v6h-29.1v14.9H184v5.7h-26.9v16.6h29.6V64h-36.1V14.9z"/>
			<path class="st9" d="M195,14.9h6V64h-6V14.9z"/>
			<path class="st9" d="M264.5,18.5c3.4,3.3,5.3,7,5.6,11.2h-6.5c-0.7-3.2-2.2-5.7-4.3-7.5c-2.2-1.8-5.2-2.8-9.1-2.8
				c-4.7,0-8.6,1.7-11.5,5.1c-2.9,3.4-4.4,8.6-4.4,15.6c0,5.7,1.3,10.4,4,14c2.6,3.6,6.6,5.4,11.8,5.4c4.8,0,8.5-1.9,11-5.6
				c1.3-2,2.3-4.6,3-7.8h6.5c-0.6,5.2-2.5,9.5-5.7,13c-3.9,4.2-9,6.3-15.6,6.3c-5.6,0-10.4-1.7-14.2-5.2c-5-4.6-7.6-11.6-7.6-21.2
				c0-7.2,1.9-13.2,5.7-17.8c4.1-5,9.7-7.6,16.9-7.6C256.3,13.6,261.1,15.2,264.5,18.5z"/>
			<path class="st9" d="M284.4,28.2V52c0,1.8,0.3,3.3,0.8,4.5c1,2.1,3,3.2,5.8,3.2c4.1,0,6.9-1.9,8.3-5.6c0.8-2,1.2-4.8,1.2-8.2
				V28.2h6V64h-5.7l0.1-5.3c-0.8,1.4-1.7,2.5-2.9,3.4c-2.2,1.9-5,2.8-8.2,2.8c-5,0-8.4-1.7-10.2-5.1c-1-1.8-1.5-4.3-1.5-7.3V28.2
				H284.4z"/>
			<path class="st9" d="M315.9,14.8h5.8v17.8c1.3-1.7,2.9-3,4.7-3.9c1.8-0.9,3.8-1.4,6-1.4c4.5,0,8.1,1.5,10.9,4.6
				c2.8,3.1,4.2,7.6,4.2,13.5c0,5.7-1.4,10.4-4.1,14.1c-2.7,3.7-6.6,5.6-11.4,5.6c-2.7,0-5-0.7-6.9-2c-1.1-0.8-2.3-2-3.6-3.7V64
				h-5.5V14.8z M338.9,56c1.6-2.6,2.4-6,2.4-10.2c0-3.8-0.8-6.9-2.4-9.4c-1.6-2.5-4-3.7-7.2-3.7c-2.7,0-5.2,1-7.2,3
				c-2.1,2-3.1,5.4-3.1,10c0,3.4,0.4,6.1,1.3,8.2c1.6,3.9,4.5,5.9,8.9,5.9C334.8,59.8,337.3,58.5,338.9,56z"/>
			<path class="st9" d="M380.4,31.8c3.2,3.1,4.7,7.6,4.7,13.5c0,5.8-1.4,10.5-4.2,14.3s-7.1,5.6-13,5.6c-4.9,0-8.8-1.7-11.6-5
				s-4.3-7.8-4.3-13.4c0-6,1.5-10.8,4.5-14.3s7.1-5.3,12.2-5.3C373.3,27.2,377.2,28.7,380.4,31.8z M376.6,55.6
				c1.5-3,2.2-6.4,2.2-10.1c0-3.3-0.5-6-1.6-8.1c-1.7-3.3-4.6-4.9-8.7-4.9c-3.6,0-6.3,1.4-7.9,4.2c-1.7,2.8-2.5,6.2-2.5,10.1
				c0,3.8,0.8,7,2.5,9.5c1.7,2.5,4.3,3.8,7.9,3.8C372.5,60.1,375.2,58.6,376.6,55.6z"/>
		</g>
		<g>
			<path class="st5" d="M150.6,14.9h35.6v6h-29.1v14.9H184v5.7h-26.9v16.6h29.6V64h-36.1V14.9z"/>
			<path class="st5" d="M195,14.9h6V64h-6V14.9z"/>
			<path class="st5" d="M264.5,18.5c3.4,3.3,5.3,7,5.6,11.2h-6.5c-0.7-3.2-2.2-5.7-4.3-7.5c-2.2-1.8-5.2-2.8-9.1-2.8
				c-4.7,0-8.6,1.7-11.5,5.1c-2.9,3.4-4.4,8.6-4.4,15.6c0,5.7,1.3,10.4,4,14c2.6,3.6,6.6,5.4,11.8,5.4c4.8,0,8.5-1.9,11-5.6
				c1.3-2,2.3-4.6,3-7.8h6.5c-0.6,5.2-2.5,9.5-5.7,13c-3.9,4.2-9,6.3-15.6,6.3c-5.6,0-10.4-1.7-14.2-5.2c-5-4.6-7.6-11.6-7.6-21.2
				c0-7.2,1.9-13.2,5.7-17.8c4.1-5,9.7-7.6,16.9-7.6C256.3,13.6,261.1,15.2,264.5,18.5z"/>
			<path class="st5" d="M284.4,28.2V52c0,1.8,0.3,3.3,0.8,4.5c1,2.1,3,3.2,5.8,3.2c4.1,0,6.9-1.9,8.3-5.6c0.8-2,1.2-4.8,1.2-8.2
				V28.2h6V64h-5.7l0.1-5.3c-0.8,1.4-1.7,2.5-2.9,3.4c-2.2,1.9-5,2.8-8.2,2.8c-5,0-8.4-1.7-10.2-5.1c-1-1.8-1.5-4.3-1.5-7.3V28.2
				H284.4z"/>
			<path class="st5" d="M315.9,14.8h5.8v17.8c1.3-1.7,2.9-3,4.7-3.9c1.8-0.9,3.8-1.4,6-1.4c4.5,0,8.1,1.5,10.9,4.6
				c2.8,3.1,4.2,7.6,4.2,13.5c0,5.7-1.4,10.4-4.1,14.1c-2.7,3.7-6.6,5.6-11.4,5.6c-2.7,0-5-0.7-6.9-2c-1.1-0.8-2.3-2-3.6-3.7V64
				h-5.5V14.8z M338.9,56c1.6-2.6,2.4-6,2.4-10.2c0-3.8-0.8-6.9-2.4-9.4c-1.6-2.5-4-3.7-7.2-3.7c-2.7,0-5.2,1-7.2,3
				c-2.1,2-3.1,5.4-3.1,10c0,3.4,0.4,6.1,1.3,8.2c1.6,3.9,4.5,5.9,8.9,5.9C334.8,59.8,337.3,58.5,338.9,56z"/>
			<path class="st5" d="M380.4,31.8c3.2,3.1,4.7,7.6,4.7,13.5c0,5.8-1.4,10.5-4.2,14.3s-7.1,5.6-13,5.6c-4.9,0-8.8-1.7-11.6-5
				s-4.3-7.8-4.3-13.4c0-6,1.5-10.8,4.5-14.3s7.1-5.3,12.2-5.3C373.3,27.2,377.2,28.7,380.4,31.8z M376.6,55.6
				c1.5-3,2.2-6.4,2.2-10.1c0-3.3-0.5-6-1.6-8.1c-1.7-3.3-4.6-4.9-8.7-4.9c-3.6,0-6.3,1.4-7.9,4.2c-1.7,2.8-2.5,6.2-2.5,10.1
				c0,3.8,0.8,7,2.5,9.5c1.7,2.5,4.3,3.8,7.9,3.8C372.5,60.1,375.2,58.6,376.6,55.6z"/>
		</g>
	</g>
	<g>
		<polygon class="st2" points="65.3,32.4 58.4,37.7 56.8,50.6 86.3,27.9 89.9,4.8 71.3,19.3 70.9,24.5 80,17.6 78.7,28.4 64.8,39.4 
					"/>
		<polygon class="st3" points="56.7,52.6 75.9,68.7 83,62.9 73.9,54.3 87,43.8 100,55 90.8,62.7 98,69.1 115.8,54.3 87.3,28.7 		"/>
		<polygon class="st4" points="109.1,21.1 91.3,4.8 87.9,27.8 116.2,52.9 118.7,39.2 112,33.3 110.7,40.7 98,28.7 99.1,17.7 
			108.7,26.3 		"/>
	</g>
</g>
<g id="Capa_3">
</g>
</svg>
